<svg width="329" height="333" viewBox="0 0 329 333" fill="none" xmlns="http://www.w3.org/2000/svg">
<rect width="328" height="333" transform="translate(0.5)" fill="white"/>
<g clip-path="url(#clip0_1_270)">
<path d="M198.348 52.162C197.959 51.759 197.467 51.48 196.931 51.3578C196.394 51.2356 195.835 51.2752 195.32 51.472L131.861 75.4708C131.314 75.6867 130.843 76.0706 130.511 76.5716C130.178 77.0726 130 77.6669 130 78.2756C130 78.8844 130.178 79.4787 130.511 79.9797C130.843 80.4807 131.314 80.8646 131.861 81.0805L159.552 92.5999L170.629 121.398C170.837 121.943 171.194 122.411 171.655 122.747C172.116 123.083 172.662 123.271 173.225 123.288C173.808 123.276 174.373 123.08 174.847 122.727C175.321 122.373 175.68 121.879 175.878 121.308L198.954 55.3118C199.151 54.7811 199.198 54.2032 199.091 53.6455C198.984 53.0878 198.726 52.5733 198.348 52.162ZM173.225 111.889L165.177 90.89L178.994 76.5207L174.927 72.291L160.995 86.7802L140.919 78.2906L191.483 59.3016L173.225 111.889Z" fill="#00A0C1"/>
</g>
<path d="M61.1172 146.524V147.518C60.5012 146.776 59.5772 146.44 58.5272 146.44C56.3852 146.44 54.7472 147.868 54.7472 150.038C54.7472 152.208 56.3852 153.664 58.5272 153.664C59.5352 153.664 60.4172 153.342 61.0332 152.67V153.062C61.0332 154.574 60.3052 155.33 58.6532 155.33C57.6172 155.33 56.5532 154.98 55.8952 154.434L55.1112 155.75C55.9652 156.45 57.3512 156.814 58.7512 156.814C61.3692 156.814 62.7832 155.582 62.7832 152.866V146.524H61.1172ZM58.7932 152.18C57.4632 152.18 56.5112 151.312 56.5112 150.038C56.5112 148.778 57.4632 147.924 58.7932 147.924C60.1092 147.924 61.0612 148.778 61.0612 150.038C61.0612 151.312 60.1092 152.18 58.7932 152.18ZM72.3119 150.304C72.3119 147.966 70.7159 146.44 68.5319 146.44C66.3059 146.44 64.6679 148.036 64.6679 150.262C64.6679 152.488 66.2919 154.098 68.7979 154.098C70.0859 154.098 71.1359 153.678 71.8079 152.88L70.8699 151.802C70.3379 152.348 69.6799 152.614 68.8399 152.614C67.5379 152.614 66.6279 151.914 66.4179 150.822H72.2839C72.2979 150.654 72.3119 150.444 72.3119 150.304ZM68.5319 147.84C69.6799 147.84 70.5059 148.582 70.6459 149.66H66.4039C66.5719 148.568 67.3979 147.84 68.5319 147.84ZM77.5529 154.098C79.8769 154.098 81.5429 152.502 81.5429 150.262C81.5429 148.022 79.8769 146.44 77.5529 146.44C75.2569 146.44 73.5769 148.022 73.5769 150.262C73.5769 152.502 75.2569 154.098 77.5529 154.098ZM77.5529 152.6C76.2929 152.6 75.3409 151.69 75.3409 150.262C75.3409 148.834 76.2929 147.924 77.5529 147.924C78.8269 147.924 79.7789 148.834 79.7789 150.262C79.7789 151.69 78.8269 152.6 77.5529 152.6ZM85.0824 147.616V146.524H83.4164V154H85.1664V150.374C85.1664 148.848 86.0064 148.064 87.3364 148.064C87.4624 148.064 87.5884 148.078 87.7424 148.106V146.44C86.4964 146.44 85.5864 146.832 85.0824 147.616ZM95.1125 146.524V147.518C94.4965 146.776 93.5725 146.44 92.5225 146.44C90.3805 146.44 88.7425 147.868 88.7425 150.038C88.7425 152.208 90.3805 153.664 92.5225 153.664C93.5305 153.664 94.4125 153.342 95.0285 152.67V153.062C95.0285 154.574 94.3005 155.33 92.6485 155.33C91.6125 155.33 90.5485 154.98 89.8905 154.434L89.1065 155.75C89.9605 156.45 91.3465 156.814 92.7465 156.814C95.3645 156.814 96.7785 155.582 96.7785 152.866V146.524H95.1125ZM92.7885 152.18C91.4585 152.18 90.5065 151.312 90.5065 150.038C90.5065 148.778 91.4585 147.924 92.7885 147.924C94.1045 147.924 95.0565 148.778 95.0565 150.038C95.0565 151.312 94.1045 152.18 92.7885 152.18ZM100.161 145.292C100.819 145.292 101.281 144.816 101.281 144.2C101.281 143.626 100.805 143.192 100.161 143.192C99.5172 143.192 99.0412 143.654 99.0412 144.242C99.0412 144.83 99.5172 145.292 100.161 145.292ZM99.2792 154H101.029V146.524H99.2792V154ZM106.382 146.44C105.178 146.44 104.016 146.748 103.218 147.364L103.904 148.638C104.464 148.176 105.332 147.896 106.172 147.896C107.418 147.896 108.034 148.498 108.034 149.52V149.632H106.102C103.834 149.632 102.994 150.612 102.994 151.858C102.994 153.16 104.072 154.098 105.78 154.098C106.9 154.098 107.712 153.734 108.132 153.09V154H109.784V149.618C109.784 147.462 108.538 146.44 106.382 146.44ZM106.144 152.824C105.248 152.824 104.716 152.418 104.716 151.788C104.716 151.242 105.038 150.794 106.228 150.794H108.034V151.662C107.74 152.432 106.998 152.824 106.144 152.824ZM112.79 154.098C113.42 154.098 113.938 153.608 113.938 152.936C113.938 152.236 113.42 151.774 112.79 151.774C112.16 151.774 111.642 152.236 111.642 152.936C111.642 153.608 112.16 154.098 112.79 154.098ZM120.703 146.524L118.337 152.054L115.985 146.524H114.165L117.427 154.028L117.301 154.322C116.965 155.064 116.601 155.358 115.985 155.358C115.509 155.358 115.033 155.162 114.697 154.84L113.997 156.128C114.473 156.562 115.257 156.814 115.999 156.814C117.245 156.814 118.197 156.296 118.883 154.602L122.383 146.524H120.703ZM126.832 154.098C129.156 154.098 130.822 152.502 130.822 150.262C130.822 148.022 129.156 146.44 126.832 146.44C124.536 146.44 122.856 148.022 122.856 150.262C122.856 152.502 124.536 154.098 126.832 154.098ZM126.832 152.6C125.572 152.6 124.62 151.69 124.62 150.262C124.62 148.834 125.572 147.924 126.832 147.924C128.106 147.924 129.058 148.834 129.058 150.262C129.058 151.69 128.106 152.6 126.832 152.6ZM138.183 146.524V150.304C138.183 151.802 137.357 152.558 136.139 152.558C135.033 152.558 134.389 151.914 134.389 150.556V146.524H132.639V150.794C132.639 153.048 133.941 154.098 135.859 154.098C136.825 154.098 137.707 153.734 138.267 153.048V154H139.933V146.524H138.183ZM146.667 146.44C145.575 146.44 144.665 146.804 144.091 147.49V146.524H142.425V154H144.175V150.22C144.175 148.722 145.015 147.966 146.261 147.966C147.381 147.966 148.039 148.61 148.039 149.94V154H149.789V149.716C149.789 147.462 148.459 146.44 146.667 146.44ZM158.031 146.524V147.518C157.415 146.776 156.491 146.44 155.441 146.44C153.299 146.44 151.661 147.868 151.661 150.038C151.661 152.208 153.299 153.664 155.441 153.664C156.449 153.664 157.331 153.342 157.947 152.67V153.062C157.947 154.574 157.219 155.33 155.567 155.33C154.531 155.33 153.467 154.98 152.809 154.434L152.025 155.75C152.879 156.45 154.265 156.814 155.665 156.814C158.283 156.814 159.697 155.582 159.697 152.866V146.524H158.031ZM155.707 152.18C154.377 152.18 153.425 151.312 153.425 150.038C153.425 148.778 154.377 147.924 155.707 147.924C157.023 147.924 157.975 148.778 157.975 150.038C157.975 151.312 157.023 152.18 155.707 152.18ZM168.358 144.074C164.354 144.074 161.666 146.776 161.666 150.444C161.666 154.154 164.326 156.856 168.302 156.856C169.338 156.856 170.542 156.632 171.396 156.198L171.018 155.078C170.164 155.512 169.156 155.694 168.302 155.694C165.082 155.694 162.954 153.538 162.954 150.444C162.954 147.392 165.11 145.222 168.358 145.222C171.55 145.222 173.734 147.238 173.734 150.234C173.734 151.886 173.314 152.768 172.558 152.768C172.166 152.768 171.83 152.53 171.83 151.816V147.056H170.276V147.966C169.73 147.308 168.918 146.972 167.938 146.972C166.006 146.972 164.578 148.442 164.578 150.514C164.578 152.614 166.006 154.084 167.938 154.084C169.058 154.084 169.912 153.664 170.458 152.866C170.696 153.664 171.34 154.084 172.236 154.084C173.916 154.084 174.924 152.628 174.924 150.206C174.924 146.636 172.222 144.074 168.358 144.074ZM168.232 152.726C167.014 152.726 166.16 151.872 166.16 150.514C166.16 149.17 167.014 148.33 168.232 148.33C169.408 148.33 170.304 149.128 170.304 150.514C170.304 151.914 169.408 152.726 168.232 152.726ZM183.904 150.304C183.904 147.966 182.308 146.44 180.124 146.44C177.898 146.44 176.26 148.036 176.26 150.262C176.26 152.488 177.884 154.098 180.39 154.098C181.678 154.098 182.728 153.678 183.4 152.88L182.462 151.802C181.93 152.348 181.272 152.614 180.432 152.614C179.13 152.614 178.22 151.914 178.01 150.822H183.876C183.89 150.654 183.904 150.444 183.904 150.304ZM180.124 147.84C181.272 147.84 182.098 148.582 182.238 149.66H177.996C178.164 148.568 178.99 147.84 180.124 147.84ZM192.314 154L189.388 150.178L192.188 146.524H190.298L188.464 148.974L186.63 146.524H184.684L187.47 150.206L184.558 154H186.49L188.422 151.41L190.34 154H192.314ZM196.525 146.44C195.321 146.44 194.159 146.748 193.361 147.364L194.047 148.638C194.607 148.176 195.475 147.896 196.315 147.896C197.561 147.896 198.177 148.498 198.177 149.52V149.632H196.245C193.977 149.632 193.137 150.612 193.137 151.858C193.137 153.16 194.215 154.098 195.923 154.098C197.043 154.098 197.855 153.734 198.275 153.09V154H199.927V149.618C199.927 147.462 198.681 146.44 196.525 146.44ZM196.287 152.824C195.391 152.824 194.859 152.418 194.859 151.788C194.859 151.242 195.181 150.794 196.371 150.794H198.177V151.662C197.883 152.432 197.141 152.824 196.287 152.824ZM211.809 146.44C210.619 146.44 209.611 146.916 209.009 147.686C208.491 146.846 207.581 146.44 206.489 146.44C205.467 146.44 204.599 146.804 204.039 147.476V146.524H202.373V154H204.123V150.206C204.123 148.722 204.907 147.966 206.069 147.966C207.133 147.966 207.749 148.61 207.749 149.94V154H209.499V150.206C209.499 148.722 210.297 147.966 211.445 147.966C212.509 147.966 213.125 148.61 213.125 149.94V154H214.875V149.716C214.875 147.462 213.615 146.44 211.809 146.44ZM221.455 146.44C220.433 146.44 219.565 146.79 218.977 147.504V146.524H217.311V156.716H219.061V153.09C219.663 153.776 220.503 154.098 221.455 154.098C223.639 154.098 225.249 152.586 225.249 150.262C225.249 147.952 223.639 146.44 221.455 146.44ZM221.259 152.6C219.999 152.6 219.033 151.69 219.033 150.262C219.033 148.834 219.999 147.924 221.259 147.924C222.519 147.924 223.471 148.834 223.471 150.262C223.471 151.69 222.519 152.6 221.259 152.6ZM227.109 154H228.859V143.612H227.109V154ZM238.383 150.304C238.383 147.966 236.787 146.44 234.603 146.44C232.377 146.44 230.739 148.036 230.739 150.262C230.739 152.488 232.363 154.098 234.869 154.098C236.157 154.098 237.207 153.678 237.879 152.88L236.941 151.802C236.409 152.348 235.751 152.614 234.911 152.614C233.609 152.614 232.699 151.914 232.489 150.822H238.355C238.369 150.654 238.383 150.444 238.383 150.304ZM234.603 147.84C235.751 147.84 236.577 148.582 236.717 149.66H232.475C232.643 148.568 233.469 147.84 234.603 147.84ZM240.824 154.098C241.454 154.098 241.972 153.608 241.972 152.936C241.972 152.236 241.454 151.774 240.824 151.774C240.194 151.774 239.676 152.236 239.676 152.936C239.676 153.608 240.194 154.098 240.824 154.098ZM247.176 154.098C248.632 154.098 249.794 153.468 250.368 152.348L249.024 151.564C248.576 152.278 247.904 152.6 247.162 152.6C245.874 152.6 244.894 151.718 244.894 150.262C244.894 148.82 245.874 147.924 247.162 147.924C247.904 147.924 248.576 148.246 249.024 148.96L250.368 148.176C249.794 147.042 248.632 146.44 247.176 146.44C244.81 146.44 243.13 148.022 243.13 150.262C243.13 152.502 244.81 154.098 247.176 154.098ZM255.331 154.098C257.655 154.098 259.321 152.502 259.321 150.262C259.321 148.022 257.655 146.44 255.331 146.44C253.035 146.44 251.355 148.022 251.355 150.262C251.355 152.502 253.035 154.098 255.331 154.098ZM255.331 152.6C254.071 152.6 253.119 151.69 253.119 150.262C253.119 148.834 254.071 147.924 255.331 147.924C256.605 147.924 257.557 148.834 257.557 150.262C257.557 151.69 256.605 152.6 255.331 152.6ZM270.63 146.44C269.44 146.44 268.432 146.916 267.83 147.686C267.312 146.846 266.402 146.44 265.31 146.44C264.288 146.44 263.42 146.804 262.86 147.476V146.524H261.194V154H262.944V150.206C262.944 148.722 263.728 147.966 264.89 147.966C265.954 147.966 266.57 148.61 266.57 149.94V154H268.32V150.206C268.32 148.722 269.118 147.966 270.266 147.966C271.33 147.966 271.946 148.61 271.946 149.94V154H273.696V149.716C273.696 147.462 272.436 146.44 270.63 146.44Z" fill="#252B42"/>
<path d="M81.3346 170.524V171.518C80.7186 170.776 79.7946 170.44 78.7446 170.44C76.6026 170.44 74.9646 171.868 74.9646 174.038C74.9646 176.208 76.6026 177.664 78.7446 177.664C79.7526 177.664 80.6346 177.342 81.2506 176.67V177.062C81.2506 178.574 80.5226 179.33 78.8706 179.33C77.8346 179.33 76.7706 178.98 76.1126 178.434L75.3286 179.75C76.1826 180.45 77.5686 180.814 78.9686 180.814C81.5866 180.814 83.0006 179.582 83.0006 176.866V170.524H81.3346ZM79.0106 176.18C77.6806 176.18 76.7286 175.312 76.7286 174.038C76.7286 172.778 77.6806 171.924 79.0106 171.924C80.3266 171.924 81.2786 172.778 81.2786 174.038C81.2786 175.312 80.3266 176.18 79.0106 176.18ZM92.5293 174.304C92.5293 171.966 90.9333 170.44 88.7493 170.44C86.5233 170.44 84.8853 172.036 84.8853 174.262C84.8853 176.488 86.5093 178.098 89.0153 178.098C90.3033 178.098 91.3533 177.678 92.0253 176.88L91.0873 175.802C90.5553 176.348 89.8973 176.614 89.0573 176.614C87.7553 176.614 86.8453 175.914 86.6353 174.822H92.5013C92.5153 174.654 92.5293 174.444 92.5293 174.304ZM88.7493 171.84C89.8973 171.84 90.7233 172.582 90.8633 173.66H86.6213C86.7893 172.568 87.6153 171.84 88.7493 171.84ZM97.7703 178.098C100.094 178.098 101.76 176.502 101.76 174.262C101.76 172.022 100.094 170.44 97.7703 170.44C95.4743 170.44 93.7943 172.022 93.7943 174.262C93.7943 176.502 95.4743 178.098 97.7703 178.098ZM97.7703 176.6C96.5103 176.6 95.5583 175.69 95.5583 174.262C95.5583 172.834 96.5103 171.924 97.7703 171.924C99.0443 171.924 99.9963 172.834 99.9963 174.262C99.9963 175.69 99.0443 176.6 97.7703 176.6ZM105.3 171.616V170.524H103.634V178H105.384V174.374C105.384 172.848 106.224 172.064 107.554 172.064C107.68 172.064 107.806 172.078 107.96 172.106V170.44C106.714 170.44 105.804 170.832 105.3 171.616ZM115.33 170.524V171.518C114.714 170.776 113.79 170.44 112.74 170.44C110.598 170.44 108.96 171.868 108.96 174.038C108.96 176.208 110.598 177.664 112.74 177.664C113.748 177.664 114.63 177.342 115.246 176.67V177.062C115.246 178.574 114.518 179.33 112.866 179.33C111.83 179.33 110.766 178.98 110.108 178.434L109.324 179.75C110.178 180.45 111.564 180.814 112.964 180.814C115.582 180.814 116.996 179.582 116.996 176.866V170.524H115.33ZM113.006 176.18C111.676 176.18 110.724 175.312 110.724 174.038C110.724 172.778 111.676 171.924 113.006 171.924C114.322 171.924 115.274 172.778 115.274 174.038C115.274 175.312 114.322 176.18 113.006 176.18ZM120.379 169.292C121.037 169.292 121.499 168.816 121.499 168.2C121.499 167.626 121.023 167.192 120.379 167.192C119.735 167.192 119.259 167.654 119.259 168.242C119.259 168.83 119.735 169.292 120.379 169.292ZM119.497 178H121.247V170.524H119.497V178ZM126.6 170.44C125.396 170.44 124.234 170.748 123.436 171.364L124.122 172.638C124.682 172.176 125.55 171.896 126.39 171.896C127.636 171.896 128.252 172.498 128.252 173.52V173.632H126.32C124.052 173.632 123.212 174.612 123.212 175.858C123.212 177.16 124.29 178.098 125.998 178.098C127.118 178.098 127.93 177.734 128.35 177.09V178H130.002V173.618C130.002 171.462 128.756 170.44 126.6 170.44ZM126.362 176.824C125.466 176.824 124.934 176.418 124.934 175.788C124.934 175.242 125.256 174.794 126.446 174.794H128.252V175.662C127.958 176.432 127.216 176.824 126.362 176.824ZM133.007 178.098C133.637 178.098 134.155 177.608 134.155 176.936C134.155 176.236 133.637 175.774 133.007 175.774C132.377 175.774 131.859 176.236 131.859 176.936C131.859 177.608 132.377 178.098 133.007 178.098ZM140.921 170.524L138.555 176.054L136.203 170.524H134.383L137.645 178.028L137.519 178.322C137.183 179.064 136.819 179.358 136.203 179.358C135.727 179.358 135.251 179.162 134.915 178.84L134.215 180.128C134.691 180.562 135.475 180.814 136.217 180.814C137.463 180.814 138.415 180.296 139.101 178.602L142.601 170.524H140.921ZM147.049 178.098C149.373 178.098 151.039 176.502 151.039 174.262C151.039 172.022 149.373 170.44 147.049 170.44C144.753 170.44 143.073 172.022 143.073 174.262C143.073 176.502 144.753 178.098 147.049 178.098ZM147.049 176.6C145.789 176.6 144.837 175.69 144.837 174.262C144.837 172.834 145.789 171.924 147.049 171.924C148.323 171.924 149.275 172.834 149.275 174.262C149.275 175.69 148.323 176.6 147.049 176.6ZM158.401 170.524V174.304C158.401 175.802 157.575 176.558 156.357 176.558C155.251 176.558 154.607 175.914 154.607 174.556V170.524H152.857V174.794C152.857 177.048 154.159 178.098 156.077 178.098C157.043 178.098 157.925 177.734 158.485 177.048V178H160.151V170.524H158.401ZM166.884 170.44C165.792 170.44 164.882 170.804 164.308 171.49V170.524H162.642V178H164.392V174.22C164.392 172.722 165.232 171.966 166.478 171.966C167.598 171.966 168.256 172.61 168.256 173.94V178H170.006V173.716C170.006 171.462 168.676 170.44 166.884 170.44ZM178.248 170.524V171.518C177.632 170.776 176.708 170.44 175.658 170.44C173.516 170.44 171.878 171.868 171.878 174.038C171.878 176.208 173.516 177.664 175.658 177.664C176.666 177.664 177.548 177.342 178.164 176.67V177.062C178.164 178.574 177.436 179.33 175.784 179.33C174.748 179.33 173.684 178.98 173.026 178.434L172.242 179.75C173.096 180.45 174.482 180.814 175.882 180.814C178.5 180.814 179.914 179.582 179.914 176.866V170.524H178.248ZM175.924 176.18C174.594 176.18 173.642 175.312 173.642 174.038C173.642 172.778 174.594 171.924 175.924 171.924C177.24 171.924 178.192 172.778 178.192 174.038C178.192 175.312 177.24 176.18 175.924 176.18ZM188.575 168.074C184.571 168.074 181.883 170.776 181.883 174.444C181.883 178.154 184.543 180.856 188.519 180.856C189.555 180.856 190.759 180.632 191.613 180.198L191.235 179.078C190.381 179.512 189.373 179.694 188.519 179.694C185.299 179.694 183.171 177.538 183.171 174.444C183.171 171.392 185.327 169.222 188.575 169.222C191.767 169.222 193.951 171.238 193.951 174.234C193.951 175.886 193.531 176.768 192.775 176.768C192.383 176.768 192.047 176.53 192.047 175.816V171.056H190.493V171.966C189.947 171.308 189.135 170.972 188.155 170.972C186.223 170.972 184.795 172.442 184.795 174.514C184.795 176.614 186.223 178.084 188.155 178.084C189.275 178.084 190.129 177.664 190.675 176.866C190.913 177.664 191.557 178.084 192.453 178.084C194.133 178.084 195.141 176.628 195.141 174.206C195.141 170.636 192.439 168.074 188.575 168.074ZM188.449 176.726C187.231 176.726 186.377 175.872 186.377 174.514C186.377 173.17 187.231 172.33 188.449 172.33C189.625 172.33 190.521 173.128 190.521 174.514C190.521 175.914 189.625 176.726 188.449 176.726ZM201.238 170.44C200.216 170.44 199.348 170.79 198.76 171.504V170.524H197.094V180.716H198.844V177.09C199.446 177.776 200.286 178.098 201.238 178.098C203.422 178.098 205.032 176.586 205.032 174.262C205.032 171.952 203.422 170.44 201.238 170.44ZM201.042 176.6C199.782 176.6 198.816 175.69 198.816 174.262C198.816 172.834 199.782 171.924 201.042 171.924C202.302 171.924 203.254 172.834 203.254 174.262C203.254 175.69 202.302 176.6 201.042 176.6ZM206.891 178H208.641V167.612H206.891V178ZM218.166 174.304C218.166 171.966 216.57 170.44 214.386 170.44C212.16 170.44 210.522 172.036 210.522 174.262C210.522 176.488 212.146 178.098 214.652 178.098C215.94 178.098 216.99 177.678 217.662 176.88L216.724 175.802C216.192 176.348 215.534 176.614 214.694 176.614C213.392 176.614 212.482 175.914 212.272 174.822H218.138C218.152 174.654 218.166 174.444 218.166 174.304ZM214.386 171.84C215.534 171.84 216.36 172.582 216.5 173.66H212.258C212.426 172.568 213.252 171.84 214.386 171.84ZM220.607 178.098C221.237 178.098 221.755 177.608 221.755 176.936C221.755 176.236 221.237 175.774 220.607 175.774C219.977 175.774 219.459 176.236 219.459 176.936C219.459 177.608 219.977 178.098 220.607 178.098ZM226.958 178.098C228.414 178.098 229.576 177.468 230.15 176.348L228.806 175.564C228.358 176.278 227.686 176.6 226.944 176.6C225.656 176.6 224.676 175.718 224.676 174.262C224.676 172.82 225.656 171.924 226.944 171.924C227.686 171.924 228.358 172.246 228.806 172.96L230.15 172.176C229.576 171.042 228.414 170.44 226.958 170.44C224.592 170.44 222.912 172.022 222.912 174.262C222.912 176.502 224.592 178.098 226.958 178.098ZM235.114 178.098C237.438 178.098 239.104 176.502 239.104 174.262C239.104 172.022 237.438 170.44 235.114 170.44C232.818 170.44 231.138 172.022 231.138 174.262C231.138 176.502 232.818 178.098 235.114 178.098ZM235.114 176.6C233.854 176.6 232.902 175.69 232.902 174.262C232.902 172.834 233.854 171.924 235.114 171.924C236.388 171.924 237.34 172.834 237.34 174.262C237.34 175.69 236.388 176.6 235.114 176.6ZM250.413 170.44C249.223 170.44 248.215 170.916 247.613 171.686C247.095 170.846 246.185 170.44 245.093 170.44C244.071 170.44 243.203 170.804 242.643 171.476V170.524H240.977V178H242.727V174.206C242.727 172.722 243.511 171.966 244.673 171.966C245.737 171.966 246.353 172.61 246.353 173.94V178H248.103V174.206C248.103 172.722 248.901 171.966 250.049 171.966C251.113 171.966 251.729 172.61 251.729 173.94V178H253.479V173.716C253.479 171.462 252.219 170.44 250.413 170.44Z" fill="#252B42"/>
<path d="M123.281 212.304H125.793V216.272C124.683 217.509 123.147 218.128 121.185 218.128C119.542 218.128 118.161 217.584 117.041 216.496C115.931 215.408 115.377 214.037 115.377 212.384C115.377 210.72 115.942 209.333 117.073 208.224C118.214 207.115 119.585 206.56 121.185 206.56C122.795 206.56 124.193 207.088 125.377 208.144L124.081 210.016C123.579 209.579 123.115 209.28 122.689 209.12C122.273 208.949 121.819 208.864 121.329 208.864C120.379 208.864 119.579 209.189 118.929 209.84C118.278 210.48 117.953 211.328 117.953 212.384C117.953 213.44 118.262 214.288 118.881 214.928C119.51 215.557 120.257 215.872 121.121 215.872C121.985 215.872 122.705 215.707 123.281 215.376V212.304ZM135.333 216.752C134.362 217.669 133.221 218.128 131.909 218.128C130.607 218.128 129.53 217.728 128.677 216.928C127.823 216.117 127.397 215.035 127.397 213.68C127.397 212.325 127.829 211.248 128.693 210.448C129.567 209.648 130.597 209.248 131.781 209.248C132.965 209.248 133.967 209.605 134.789 210.32C135.621 211.035 136.037 212.016 136.037 213.264V214.544H129.765C129.839 215.013 130.085 215.397 130.501 215.696C130.917 215.995 131.386 216.144 131.909 216.144C132.751 216.144 133.445 215.861 133.989 215.296L135.333 216.752ZM133.605 212.832C133.551 212.32 133.359 211.925 133.029 211.648C132.698 211.371 132.293 211.232 131.813 211.232C131.343 211.232 130.911 211.376 130.517 211.664C130.122 211.952 129.893 212.341 129.829 212.832H133.605ZM140.638 211.12V214.976C140.638 215.307 140.723 215.568 140.894 215.76C141.064 215.941 141.267 216.032 141.502 216.032C141.95 216.032 142.328 215.829 142.638 215.424L143.534 217.104C142.787 217.787 141.998 218.128 141.166 218.128C140.344 218.128 139.646 217.856 139.07 217.312C138.504 216.768 138.222 216.027 138.222 215.088V211.12H137.214V209.392H138.222V206.816H140.638V209.392H142.718V211.12H140.638ZM153.079 208.752C152.663 208.752 152.332 208.853 152.087 209.056C151.852 209.248 151.735 209.509 151.735 209.84C151.735 210.16 151.879 210.416 152.167 210.608C152.466 210.8 153.143 211.029 154.199 211.296C155.266 211.552 156.092 211.941 156.679 212.464C157.266 212.987 157.559 213.749 157.559 214.752C157.559 215.755 157.18 216.571 156.423 217.2C155.676 217.819 154.69 218.128 153.463 218.128C151.692 218.128 150.098 217.472 148.679 216.16L150.167 214.336C151.372 215.392 152.487 215.92 153.511 215.92C153.97 215.92 154.327 215.824 154.583 215.632C154.85 215.429 154.983 215.163 154.983 214.832C154.983 214.491 154.844 214.224 154.567 214.032C154.29 213.829 153.74 213.627 152.919 213.424C151.618 213.115 150.663 212.715 150.055 212.224C149.458 211.723 149.159 210.944 149.159 209.888C149.159 208.821 149.538 208 150.295 207.424C151.063 206.848 152.018 206.56 153.159 206.56C153.906 206.56 154.652 206.688 155.399 206.944C156.146 207.2 156.796 207.563 157.351 208.032L156.087 209.856C155.116 209.12 154.114 208.752 153.079 208.752ZM164.985 214.032V209.392H167.401V218H164.985V216.864C164.388 217.707 163.614 218.128 162.665 218.128C161.726 218.128 160.937 217.835 160.297 217.248C159.657 216.651 159.337 215.771 159.337 214.608V209.392H161.753V214.08C161.753 215.403 162.238 216.064 163.209 216.064C163.689 216.064 164.105 215.893 164.457 215.552C164.809 215.2 164.985 214.693 164.985 214.032ZM174.775 209.248C175.778 209.248 176.669 209.669 177.447 210.512C178.237 211.344 178.631 212.395 178.631 213.664C178.631 214.933 178.237 215.995 177.447 216.848C176.669 217.701 175.751 218.128 174.695 218.128C173.65 218.128 172.807 217.707 172.167 216.864V221.104H169.767V209.392H172.167V210.352C172.903 209.616 173.773 209.248 174.775 209.248ZM172.135 213.712C172.135 214.405 172.327 214.976 172.711 215.424C173.106 215.861 173.581 216.08 174.135 216.08C174.69 216.08 175.175 215.861 175.591 215.424C176.007 214.976 176.215 214.405 176.215 213.712C176.215 213.019 176.013 212.437 175.607 211.968C175.202 211.499 174.717 211.264 174.151 211.264C173.586 211.264 173.106 211.499 172.711 211.968C172.327 212.427 172.135 213.008 172.135 213.712ZM185.531 209.248C186.534 209.248 187.425 209.669 188.203 210.512C188.993 211.344 189.387 212.395 189.387 213.664C189.387 214.933 188.993 215.995 188.203 216.848C187.425 217.701 186.507 218.128 185.451 218.128C184.406 218.128 183.563 217.707 182.923 216.864V221.104H180.523V209.392H182.923V210.352C183.659 209.616 184.529 209.248 185.531 209.248ZM182.891 213.712C182.891 214.405 183.083 214.976 183.467 215.424C183.862 215.861 184.337 216.08 184.891 216.08C185.446 216.08 185.931 215.861 186.347 215.424C186.763 214.976 186.971 214.405 186.971 213.712C186.971 213.019 186.769 212.437 186.363 211.968C185.958 211.499 185.473 211.264 184.907 211.264C184.342 211.264 183.862 211.499 183.467 211.968C183.083 212.427 182.891 213.008 182.891 213.712ZM193.2 213.696C193.2 214.4 193.397 214.976 193.792 215.424C194.197 215.861 194.709 216.08 195.328 216.08C195.957 216.08 196.469 215.861 196.864 215.424C197.269 214.976 197.472 214.4 197.472 213.696C197.472 212.992 197.269 212.416 196.864 211.968C196.469 211.52 195.957 211.296 195.328 211.296C194.709 211.296 194.197 211.52 193.792 211.968C193.397 212.416 193.2 212.992 193.2 213.696ZM199.888 213.696C199.888 214.944 199.456 215.995 198.592 216.848C197.728 217.701 196.64 218.128 195.328 218.128C194.026 218.128 192.944 217.701 192.08 216.848C191.216 215.995 190.784 214.944 190.784 213.696C190.784 212.448 191.216 211.397 192.08 210.544C192.944 209.68 194.026 209.248 195.328 209.248C196.64 209.248 197.728 209.68 198.592 210.544C199.456 211.397 199.888 212.448 199.888 213.696ZM206.298 211.504C205.584 211.504 205.05 211.76 204.698 212.272C204.346 212.773 204.17 213.44 204.17 214.272V218H201.77V209.392H204.17V210.528C204.48 210.176 204.864 209.877 205.322 209.632C205.792 209.387 206.266 209.259 206.746 209.248L206.762 211.504H206.298ZM211.312 211.12V214.976C211.312 215.307 211.398 215.568 211.569 215.76C211.739 215.941 211.942 216.032 212.177 216.032C212.625 216.032 213.003 215.829 213.313 215.424L214.209 217.104C213.462 217.787 212.673 218.128 211.841 218.128C211.019 218.128 210.321 217.856 209.745 217.312C209.179 216.768 208.897 216.027 208.897 215.088V211.12H207.889V209.392H208.897V206.816H211.312V209.392H213.393V211.12H211.312Z" fill="#252B42"/>
<path d="M109.332 266.14C112.02 266.14 113.294 264.796 113.294 263.228C113.294 259.63 107.484 260.988 107.484 258.902C107.484 258.16 108.1 257.572 109.612 257.572C110.466 257.572 111.432 257.824 112.314 258.342L112.888 256.928C112.034 256.368 110.802 256.06 109.626 256.06C106.938 256.06 105.678 257.404 105.678 258.986C105.678 262.626 111.502 261.24 111.502 263.354C111.502 264.082 110.858 264.628 109.332 264.628C108.128 264.628 106.882 264.18 106.098 263.55L105.468 264.964C106.28 265.664 107.806 266.14 109.332 266.14ZM120.619 258.524V262.304C120.619 263.802 119.793 264.558 118.575 264.558C117.469 264.558 116.825 263.914 116.825 262.556V258.524H115.075V262.794C115.075 265.048 116.377 266.098 118.295 266.098C119.261 266.098 120.143 265.734 120.703 265.048V266H122.369V258.524H120.619ZM129.004 258.44C128.052 258.44 127.212 258.762 126.61 259.434V255.612H124.86V266H126.526V265.034C127.114 265.748 127.982 266.098 129.004 266.098C131.188 266.098 132.798 264.586 132.798 262.262C132.798 259.938 131.188 258.44 129.004 258.44ZM128.808 264.6C127.548 264.6 126.582 263.69 126.582 262.262C126.582 260.834 127.548 259.924 128.808 259.924C130.068 259.924 131.02 260.834 131.02 262.262C131.02 263.69 130.068 264.6 128.808 264.6ZM144.094 258.44C142.904 258.44 141.896 258.916 141.294 259.686C140.776 258.846 139.866 258.44 138.774 258.44C137.752 258.44 136.884 258.804 136.324 259.476V258.524H134.658V266H136.408V262.206C136.408 260.722 137.192 259.966 138.354 259.966C139.418 259.966 140.034 260.61 140.034 261.94V266H141.784V262.206C141.784 260.722 142.582 259.966 143.73 259.966C144.794 259.966 145.41 260.61 145.41 261.94V266H147.16V261.716C147.16 259.462 145.9 258.44 144.094 258.44ZM150.478 257.292C151.136 257.292 151.598 256.816 151.598 256.2C151.598 255.626 151.122 255.192 150.478 255.192C149.834 255.192 149.358 255.654 149.358 256.242C149.358 256.83 149.834 257.292 150.478 257.292ZM149.596 266H151.346V258.524H149.596V266ZM157.847 264.348C157.581 264.558 157.231 264.656 156.867 264.656C156.195 264.656 155.831 264.264 155.831 263.536V259.98H157.833V258.58H155.831V256.872H154.081V258.58H152.849V259.98H154.081V263.578C154.081 265.23 155.019 266.098 156.657 266.098C157.287 266.098 157.917 265.93 158.337 265.594L157.847 264.348ZM172.586 266L170.332 262.78C171.662 262.262 172.418 261.17 172.418 259.686C172.418 257.516 170.822 256.2 168.246 256.2H164.214V266H166.034V263.144H168.246C168.372 263.144 168.498 263.144 168.624 263.13L170.626 266H172.586ZM170.584 259.686C170.584 260.918 169.758 261.646 168.162 261.646H166.034V257.74H168.162C169.758 257.74 170.584 258.454 170.584 259.686ZM181.514 262.304C181.514 259.966 179.918 258.44 177.734 258.44C175.508 258.44 173.87 260.036 173.87 262.262C173.87 264.488 175.494 266.098 178 266.098C179.288 266.098 180.338 265.678 181.01 264.88L180.072 263.802C179.54 264.348 178.882 264.614 178.042 264.614C176.74 264.614 175.83 263.914 175.62 262.822H181.486C181.5 262.654 181.514 262.444 181.514 262.304ZM177.734 259.84C178.882 259.84 179.708 260.582 179.848 261.66H175.606C175.774 260.568 176.6 259.84 177.734 259.84ZM189.037 258.524V259.504C188.449 258.79 187.581 258.44 186.559 258.44C184.375 258.44 182.779 259.952 182.779 262.262C182.779 264.586 184.375 266.098 186.559 266.098C187.511 266.098 188.351 265.776 188.953 265.09V268.716H190.703V258.524H189.037ZM186.755 264.6C185.495 264.6 184.543 263.69 184.543 262.262C184.543 260.834 185.495 259.924 186.755 259.924C188.029 259.924 188.981 260.834 188.981 262.262C188.981 263.69 188.029 264.6 186.755 264.6ZM198.681 258.524V262.304C198.681 263.802 197.855 264.558 196.637 264.558C195.531 264.558 194.887 263.914 194.887 262.556V258.524H193.137V262.794C193.137 265.048 194.439 266.098 196.357 266.098C197.323 266.098 198.205 265.734 198.765 265.048V266H200.431V258.524H198.681ZM209.95 262.304C209.95 259.966 208.354 258.44 206.17 258.44C203.944 258.44 202.306 260.036 202.306 262.262C202.306 264.488 203.93 266.098 206.436 266.098C207.724 266.098 208.774 265.678 209.446 264.88L208.508 263.802C207.976 264.348 207.318 264.614 206.478 264.614C205.176 264.614 204.266 263.914 204.056 262.822H209.922C209.936 262.654 209.95 262.444 209.95 262.304ZM206.17 259.84C207.318 259.84 208.144 260.582 208.284 261.66H204.042C204.21 260.568 205.036 259.84 206.17 259.84ZM214.141 266.098C216.241 266.098 217.529 265.188 217.529 263.788C217.529 260.862 212.909 262.206 212.909 260.694C212.909 260.204 213.413 259.854 214.477 259.854C215.191 259.854 215.905 259.994 216.619 260.414L217.291 259.084C216.619 258.678 215.485 258.44 214.491 258.44C212.475 258.44 211.201 259.364 211.201 260.778C211.201 263.76 215.821 262.416 215.821 263.844C215.821 264.362 215.359 264.67 214.253 264.67C213.315 264.67 212.307 264.362 211.649 263.928L210.977 265.258C211.649 265.734 212.895 266.098 214.141 266.098ZM223.24 264.348C222.974 264.558 222.624 264.656 222.26 264.656C221.588 264.656 221.224 264.264 221.224 263.536V259.98H223.226V258.58H221.224V256.872H219.474V258.58H218.242V259.98H219.474V263.578C219.474 265.23 220.412 266.098 222.05 266.098C222.68 266.098 223.31 265.93 223.73 265.594L223.24 264.348Z" fill="#FFA62B"/>
<rect x="85" y="239.5" width="159" height="43" rx="4.5" stroke="#FFA62B"/>
<defs>
<clipPath id="clip0_1_270">
<rect width="72" height="72" fill="white" transform="translate(128.5 50)"/>
</clipPath>
</defs>
</svg>
